# xmcd CD database file
#
# Track frame offsets:
#	150
#	11460
#	21681
#	35681
#	48300
#	57466
#	70849
#	83011
#	101536
#	113921
#	125035
#	135778
#	145326
#	160032
#	172697
#	188035
#	199078
#	212362
#	225103
#	239746
#	250286
#	265441
#	275008
#	289202
#	303374
#
# Disc length: 4177 seconds
#
# Revision: 3
# Processed by: cddbd v1.5.1PL0 Copyright (c) Steve Scherf et al.
# Submitted via: CDex 1.51
#
DISCID=64104f19
DTITLE=Various Artist - Queens Of Country [CD2]
DYEAR=1999
DGENRE=Country
TTITLE0=Connie Smith - Nobody But A Fool Would Love You
TTITLE1=Jean Shephard - If Teardrops Were Silver
TTITLE2=Jeannie Seely - Don't Touch Me
TTITLE3=Patsy Cline - Fingerprints
TTITLE4=Kitty Wells - I'll Repossess My Heart
TTITLE5=Lynn Anderson - Top Of The World
TTITLE6=Jeannie C. Riley - Country Girl
TTITLE7=Lynn Anderson - Midnight Train To Georgia
TTITLE8=Kitty Wells - This White Circle On My Finger
TTITLE9=Connie Smith - Then And Only Then
TTITLE10=Patsy Cline - I Can See An Angel
TTITLE11=Skeeter Davis - Turn Your Radio On
TTITLE12=Connie Smith - Jesus Is Your Ticket To Heaven
TTITLE13=Patsy Cline - Just A Closer Walk With Thee
TTITLE14=Margo Smith - You Light Up My Life
TTITLE15=Jeanne Pruett - Standing On The Promises
TTITLE16=Lacy J. Dalton - Life's Railway To Heaven 
TTITLE17=Jeanne Pruett - Uncloudy Day
TTITLE18=Sandy Posey - Put Your Hand In The Hand
TTITLE19=Patsy Cline - I Love You Honey
TTITLE20=Barbara Fairchild - Baby Doll
TTITLE21=Skeeter Davis - Am I That Easy To Forget
TTITLE22=Lynn Anderson - Cry
TTITLE23=Lacy J. Dalton - 16th Avenue
TTITLE24=Skeeter Davis - I Can't Stay Mad At You
EXTD=YEAR: 1999
EXTT0=
EXTT1=
EXTT2=
EXTT3=
EXTT4=
EXTT5=
EXTT6=
EXTT7=
EXTT8=
EXTT9=
EXTT10=
EXTT11=
EXTT12=
EXTT13=
EXTT14=
EXTT15=
EXTT16=
EXTT17=
EXTT18=
EXTT19=
EXTT20=
EXTT21=
EXTT22=
EXTT23=
EXTT24=
PLAYORDER=
